<?xml version="1.0" standalone="no"?>
<!DOCTYPE svg PUBLIC "-//W3C//DTD SVG 20010904//EN"
 "http://www.w3.org/TR/2001/REC-SVG-20010904/DTD/svg10.dtd">
<svg version="1.0" xmlns="http://www.w3.org/2000/svg"
 width="1831.000000pt" height="1831.000000pt" viewBox="0 0 1831.000000 1831.000000"
 preserveAspectRatio="xMidYMid meet">
<metadata>
Created by potrace 1.14, written by Peter Selinger 2001-2017
</metadata>
<g transform="translate(0.000000,1831.000000) scale(0.100000,-0.100000)"
fill="#000000" stroke="none">
<path d="M6205 18293 c-440 -32 -822 -131 -1190 -307 -212 -102 -475 -270
-620 -397 -208 -181 -314 -290 -445 -453 -593 -743 -914 -1803 -929 -3070 -1
-95 -6 -145 -15 -157 -7 -10 -71 -54 -142 -97 -234 -142 -334 -206 -487 -316
-141 -100 -396 -299 -476 -371 -19 -16 -59 -52 -90 -79 -184 -162 -466 -468
-627 -681 -599 -789 -830 -1719 -649 -2610 157 -770 606 -1484 1346 -2140 264
-235 700 -544 1046 -744 40 -23 77 -49 82 -59 4 -9 11 -125 15 -257 39 -1399
432 -2498 1152 -3219 232 -232 552 -468 721 -532 368 -139 757 189 678 571
-34 166 -130 290 -305 395 -138 82 -342 258 -467 401 -213 245 -418 629 -537
1011 -76 241 -121 452 -171 803 -3 17 -8 74 -11 128 -7 92 -6 99 15 121 40 42
58 40 242 -30 578 -219 1264 -413 1925 -544 78 -15 149 -32 158 -37 28 -16
144 -153 150 -178 7 -26 -21 -110 -519 -1570 -86 -253 -199 -584 -250 -735
-51 -151 -161 -475 -245 -720 -83 -245 -167 -490 -185 -545 -19 -55 -88 -260
-155 -455 -284 -832 -271 -791 -271 -882 0 -104 12 -162 55 -246 67 -133 203
-236 351 -267 88 -18 122 -18 209 0 158 33 285 133 354 277 22 46 47 103 56
128 16 45 18 46 307 220 161 96 308 184 328 196 20 12 302 181 626 376 325
195 883 531 1242 746 480 289 660 392 682 392 21 0 88 -34 218 -113 104 -63
224 -135 268 -161 611 -364 2181 -1312 2183 -1318 2 -4 9 -8 15 -8 7 -1 118
-65 247 -143 l235 -142 40 -100 c67 -166 139 -248 271 -312 140 -67 306 -66
450 3 77 37 192 150 227 224 77 161 76 277 -8 520 -31 91 -97 282 -145 425
-49 143 -154 454 -235 690 -81 237 -155 455 -165 485 -10 30 -84 249 -165 485
-81 237 -162 475 -180 530 -19 55 -97 287 -175 515 -78 228 -146 426 -150 440
-4 14 -77 225 -160 470 -197 576 -196 572 -181 607 6 15 42 61 79 101 l67 74
100 18 c629 117 1306 305 1942 540 230 86 249 88 287 37 18 -25 19 -32 8 -149
-18 -181 -67 -463 -112 -647 -38 -155 -108 -383 -135 -446 -8 -16 -26 -59 -40
-95 -163 -396 -396 -723 -687 -966 -48 -40 -145 -111 -216 -157 -140 -92 -198
-151 -251 -252 -144 -276 -10 -613 285 -716 126 -43 278 -33 396 27 131 66
301 184 463 320 806 677 1266 1763 1350 3184 3 52 8 178 10 279 3 135 8 189
18 205 8 11 81 61 163 110 251 150 505 325 740 509 39 31 74 54 78 52 3 -3 4
-2 2 1 -3 3 9 18 27 33 111 91 172 146 290 261 192 185 263 261 405 433 434
528 700 1100 793 1707 27 175 36 527 20 707 -52 552 -240 1064 -573 1561 -82
122 -251 345 -298 392 -3 3 -33 37 -67 76 -34 39 -103 112 -153 163 -56 55
-88 95 -84 102 4 8 3 9 -5 5 -7 -5 -40 19 -84 61 -304 289 -748 615 -1172 861
-38 22 -76 50 -83 62 -8 14 -14 78 -17 193 -8 293 -14 398 -41 657 -117 1136
-528 2074 -1179 2692 -247 234 -573 453 -867 579 -814 352 -1731 357 -2758 16
-343 -114 -726 -285 -1102 -490 -97 -53 -182 -97 -190 -97 -7 0 -87 41 -178
90 -197 108 -440 228 -605 300 -66 28 -134 58 -150 65 -48 22 -89 38 -102 41
-6 1 -55 19 -110 39 -326 122 -718 221 -1068 269 -177 25 -585 41 -740 29z
m585 -1048 c337 -42 680 -136 1051 -288 262 -108 279 -119 279 -181 0 -35 -33
-68 -220 -221 -306 -250 -746 -665 -1060 -1000 -46 -49 -89 -88 -94 -87 -6 2
-8 0 -4 -4 4 -3 -27 -45 -70 -93 -42 -47 -93 -104 -112 -126 -19 -22 -60 -66
-90 -97 l-55 -58 -110 -21 c-633 -119 -1364 -325 -1969 -553 -82 -31 -162 -56
-178 -56 -17 0 -39 10 -53 25 -32 31 -32 77 -5 286 167 1263 731 2099 1610
2388 148 48 369 90 555 105 96 7 401 -4 525 -19z m5440 -1 c857 -123 1470
-678 1796 -1627 99 -289 186 -711 210 -1019 7 -86 6 -87 -22 -113 -40 -37 -74
-31 -279 47 -524 201 -1263 409 -1860 524 -183 35 -186 36 -246 108 -398 468
-991 1049 -1459 1430 -80 65 -151 125 -157 134 -21 26 -16 86 10 109 41 39
326 157 573 239 323 107 545 152 919 188 85 9 406 -4 515 -20z m-2992 -1076
c25 -18 53 -38 62 -45 8 -7 65 -50 127 -96 100 -74 377 -297 428 -344 11 -10
52 -45 90 -78 122 -104 175 -158 181 -182 14 -54 -48 -122 -100 -109 -81 20
-1052 27 -1471 12 -334 -13 -314 -14 -342 18 -25 30 -31 83 -10 107 75 91 663
571 882 721 54 37 95 36 153 -4z m572 -1873 c36 -2 146 -9 245 -15 431 -25
1199 -110 1275 -141 14 -5 48 -40 75 -76 44 -58 169 -220 193 -248 28 -35 246
-336 339 -470 480 -692 933 -1490 1281 -2255 16 -36 39 -85 50 -110 48 -106
172 -404 212 -508 l44 -113 -64 -157 c-182 -454 -420 -965 -620 -1337 -223
-415 -384 -692 -605 -1040 -196 -309 -610 -893 -751 -1061 l-44 -52 -70 14
c-39 7 -75 16 -80 19 -5 3 -18 34 -29 68 -23 72 -321 952 -387 1141 -25 71
-63 157 -86 192 -75 120 -213 220 -358 260 -61 17 -145 18 -1300 18 -1166 1
-1238 0 -1295 -18 -89 -27 -147 -60 -212 -120 -81 -75 -113 -135 -182 -336
-137 -404 -374 -1099 -393 -1152 -17 -51 -23 -58 -51 -63 -18 -3 -53 -9 -79
-14 l-47 -8 -93 121 c-262 341 -611 844 -763 1098 -5 10 -44 73 -86 140 -367
591 -749 1343 -1036 2038 -47 113 -87 219 -90 235 -5 34 34 140 164 445 145
339 402 877 508 1065 12 22 46 85 75 140 29 55 64 117 76 137 13 21 24 40 24
43 0 14 355 604 475 789 298 461 806 1152 864 1175 39 16 490 76 756 101 61 5
128 12 150 15 69 7 522 36 715 44 190 9 1084 6 1200 -4z m-4515 -590 c45 -44
36 -70 -94 -273 -264 -416 -480 -792 -716 -1247 -62 -121 -92 -155 -135 -155
-16 0 -41 10 -55 23 -22 19 -30 44 -59 187 -68 331 -146 859 -146 984 0 42 5
57 23 74 67 63 1020 430 1120 431 27 1 45 -6 62 -24z m7982 -30 c421 -142 902
-342 937 -389 20 -26 20 -29 3 -184 -37 -329 -131 -891 -168 -1010 -6 -18 -21
-39 -32 -46 -25 -16 -74 -18 -99 -5 -9 5 -58 89 -108 186 -217 418 -475 863
-713 1233 -110 170 -119 200 -77 245 35 37 72 32 257 -30z m-10179 -1018 c18
-19 28 -58 52 -207 97 -589 251 -1202 457 -1826 l86 -262 -66 -198 c-224 -674
-375 -1275 -477 -1898 -27 -163 -32 -183 -55 -203 -29 -25 -65 -29 -98 -11
-35 18 -273 199 -382 289 -140 117 -424 403 -529 534 -610 762 -742 1574 -384
2360 223 488 656 980 1218 1384 97 69 140 79 178 38z m12352 -78 c383 -287
698 -600 917 -914 295 -422 439 -840 442 -1290 6 -627 -275 -1223 -844 -1790
-193 -193 -494 -443 -516 -429 -8 4 -9 3 -5 -4 10 -16 -131 -112 -165 -112
-15 0 -40 10 -55 23 -24 21 -29 40 -64 247 -104 612 -252 1195 -461 1823 -38
115 -69 218 -69 230 0 28 111 361 122 365 5 2 6 7 3 12 -3 4 4 34 16 66 40
117 170 584 223 804 61 252 132 596 171 830 14 85 27 165 30 177 8 36 45 63
84 63 30 0 59 -17 171 -101z m-11050 -3899 c10 -6 49 -70 86 -143 190 -375
459 -844 725 -1263 119 -187 127 -211 84 -258 -22 -24 -31 -27 -68 -22 -114
14 -650 214 -1062 397 -59 26 -75 48 -75 103 0 142 86 712 156 1034 13 63 24
115 24 117 0 3 10 13 22 25 24 22 77 27 108 10z m9617 -5 c27 -19 34 -43 72
-230 53 -260 121 -712 136 -905 9 -111 7 -112 -180 -196 -283 -126 -902 -354
-962 -354 -35 0 -61 16 -79 51 -21 42 -15 56 98 229 216 331 491 808 718 1245
40 77 81 148 92 158 25 21 76 22 105 2z m-4091 -1284 c43 -2 64 -34 110 -171
171 -504 224 -666 224 -690 0 -15 -11 -39 -24 -52 -21 -24 -32 -26 -132 -32
-60 -4 -125 -9 -144 -11 -55 -6 -514 -18 -735 -19 -521 -2 -1090 22 -1130 48
-41 27 -48 64 -26 131 39 122 182 541 191 560 4 11 21 58 36 105 29 94 53 127
93 132 23 3 1481 2 1537 -1z m-2021 -1956 c55 -4 109 -8 121 -10 11 -2 85 -6
165 -10 79 -4 147 -9 150 -11 11 -6 579 -19 824 -19 398 1 829 16 1120 40 33
2 96 7 140 10 44 4 97 8 119 11 59 8 91 -10 114 -64 52 -124 242 -706 236
-727 -3 -13 -15 -32 -27 -43 -39 -35 -1671 -1009 -1700 -1014 -24 -5 -161 74
-870 500 -463 277 -850 514 -859 526 -10 11 -18 31 -18 43 0 22 228 702 249
741 16 31 47 42 96 37 22 -2 85 -7 140 -10z m-336 -2101 c234 -141 441 -266
458 -278 41 -27 54 -61 39 -106 -9 -29 -31 -46 -156 -121 -80 -48 -156 -94
-170 -102 -38 -21 -721 -432 -776 -467 -27 -17 -55 -28 -62 -25 -7 2 -11 1 -8
-4 6 -9 -159 -112 -208 -131 -38 -14 -89 9 -105 48 -15 37 -29 -10 169 572 89
261 188 553 221 649 33 99 69 185 81 198 45 48 58 42 517 -233z m3694 234 c18
-17 51 -101 127 -328 56 -168 106 -314 110 -325 5 -11 32 -90 61 -175 28 -85
80 -240 115 -344 35 -103 64 -203 64 -220 0 -61 -66 -99 -122 -70 -18 9 -311
184 -650 388 -340 204 -632 379 -650 389 -43 24 -78 63 -78 88 0 53 49 93 265
215 11 6 166 100 345 208 348 210 365 218 413 174z"/>
<path d="M8975 11526 c-130 -23 -223 -53 -340 -111 -130 -64 -200 -116 -312
-226 -392 -388 -454 -1004 -148 -1476 68 -105 220 -259 321 -326 201 -132 399
-196 629 -202 337 -8 635 112 870 349 217 220 332 489 340 796 8 331 -110 624
-345 861 -159 160 -338 262 -554 315 -127 32 -339 41 -461 20z"/>
</g>
</svg>
